<?xml version="1.0" encoding="UTF-8"?>
<svg id="Sweetwater_Logo" data-name="Sweetwater Logo" xmlns="http://www.w3.org/2000/svg" viewBox="0 0 495.01 109.55">
  <defs>
    <style>
      .cls-1 {
        fill: #df2935;
      }

      .cls-1, .cls-2 {
        stroke-width: 0px;
      }

      .cls-2 {
        fill: #2e71ea;
      }
    </style>
  </defs>
  <g id="Swoosh">
    <path class="cls-1" d="M488.17,88.15c-2.17-1,1.15-.65,2.06-.85-.7-1.05-2.52-.94-3.66-1.29,0-.03,0-.05,0-.08-.43-.02-1.18-.01-1.34.5-.78,0-1.65-.15-2.13-.81-2.03-.19-3.56,1.85-5.93.89.03-.15.05-.3.07-.44,1.45.36,3.09-.39,4.05-1.43-1.64-.55-3.41.3-5.14.03-.63-.07-1.48-.51-1.93.13-1.04-.17-2.14-.91-3.41-.84-.18-1.22-2.09-.96-3.04-1.17.97-.39.77-.9-.14-1.22,0-.02,0-.04,0-.05-3.01.73-3.15-2.08-6.63-.73.74-.08,2.5.35,1.42,1.25-2.06-.51-4.17-.86-6.3-.89-1.71,1.39-4.83.19-7.09.09,1.05-1.62-1.01-1.24-2.08-1.15-.04.22-.07.44-.1.66-.63-.08-1.26-.17-1.89-.26.19-.43.75-.56,1.13-.79-1.11-1.47-5.21-.45-7.32-.76.03-.26.08-.52.12-.78-.41.05-.81.08-1.21.09-2.03.39-4.23.62-6.63.62-5.29,0-9.49-.84-12.81-2.53-1.52-.17-2.77.1-4.4-.33,1.06-1.39-.77-1.57-2.69-1.6v3.34h-3.5c-1.49,0-2.94.05-4.32.15-1.54.11-3.19.16-4.91.16-3.01,0-5.44-.21-7.45-.64-2.53-.54-4.54-1.71-5.97-3.46-.34-.42-.65-.87-.93-1.34-1.34,0-2.67,0-4,0,.04.1.07.19.11.29l2.02,4.85h-20.87l-.99-1.84c-.07-.12-.13-.24-.19-.37-.97.77-1.99,1.37-3.08,1.8-2.59,1.03-5.75,1.53-9.64,1.53-3,0-5.63-.56-7.82-1.65-2.24-1.12-4.07-2.7-5.43-4.69-.17-.26-.33-.53-.49-.79-2.42-.08-4.84-.14-7.26-.21l-.74,3.45-.6,2.76h-21.83l-.53-2.86-.69-3.7c-2.05,0-4.09,0-6.13.02l-.64,3.64-.51,2.9h-22.16l-.6-2.76-.67-3.08c-1.09.05-2.17.1-3.25.17,0-.03.02-.06.04-.09-1.37-.05-2.74-.05-4.1-.04v5.8h-3.5c-1.49,0-2.94.05-4.32.15-1.54.11-3.19.16-4.91.16-3.01,0-5.44-.21-7.45-.64-2.53-.54-4.54-1.71-5.97-3.46-.19-.23-.35-.49-.52-.74-3.82-.18-7.72.13-11.66.43-3.81,3.46-9.33,5.23-16.46,5.23-5.82,0-10.33-1-13.78-3.05-.54-.32-1.04-.66-1.54-1.01-2.66-.25-5.78-.1-8.01.56-2.86.03-5.76-.03-8.65-.03-3.64,2.35-8.42,3.54-14.3,3.54-3.97,0-7.32-.48-10.15-1.43-1.12.12-2.25.27-3.25.04-.29.57-1.22.82-1.75.97-5.12-1-11.07,1.06-16.78.37v-.03c-1.6-.11-3.23.39-4.88.39.07.21.16.08.3.12-.06.39-.08.54-.13.89-3-1.21-6.36.16-9.08.5-.1-1.43-1.8-1.37-2.88-.98h.35c-.71.07-1.31.37-1.67,1.13-2.83.8-7.88-1.83-9.22,1.39-.91-.43-1.67-.87-2.77-.83-1.08,1.22-3.3.6-4.71,1.36-.84-.37-5.86-.73-5.86.45-.27-.05-.46.08-.68.21-1.82-.98-5.68-1.3-7.14.43-.35-.8-1.73-.52-2.48-.6-.4,1.01.35,1.71.91,2.46-.8-.11-3.19-.87-1.93-2.15-.53-.01-1.04-.17-1.57-.25-2.11,1.73-6.3-.08-7.83,2.86-.31-.04-.63-.09-.95-.13.79-1.49-2.23-1.65-2.24-.46-4.33.01-8.89.62-12.83,2.3-2.73-1.84-6.13-.14-9.15-1.17-.3.34-.94.21-1.28.54-.6,3.3-5.74-.6-7.48,2.08-1.2-.59-2.37-.92-3.75-.73.07.72.9,1.11,1.37,1.58-.76-.19-2.42-.01-2.1-1.04-.7-.32-2.45-.05-2.71.81,0,0,0,.01,0,.01,0,.01,0,.01,0,.02-.49.07-2.36.07-1.72.75-.47-.02-.89.19-1.33.31,0-.41-.57-.47-.88-.57-.21-.91-1.65-1.12-2.33-.62-.31.65.6,1-.39,1.57-1.69-.55-3.32-.9-5.08-.42-.06-.3-.13-.6-.19-.89-1.84-.21-3.12,1.2-4.93.69-1.22,1.01-4.82-.29-4.79,1.91,4.31-.45,8.59-.02,12.93-.43,1.29,4.25-4.34,3.55-7.03,3.98,0-.03,0-.05,0-.08.62-.06,1.21-.66,1.42-1.28.28-.91,2.5-.85,1.01-1.93-1.74-.18-3.06,1.43-4.52,2.25.32.41,1.02.5,1.52.58-.24.74-1.1,1.13-1.81,1.3-.02.15-.04.3-.07.44.4.07,2.98-.32,2.33.16-2.19,1.32-.68.68-.79,2.25.07,0,.18,0,.25,0h-.25c-.12.4-.17.87.18,1.17-.61-.03-1.15.3-1.69.52l2.49.6c-1.88-.13-3.48,1.59-3.65-1.4-.55-.09-1.77.17-1.84-.59-.67.08-1.4-.01-2.04.14-.73,1.55-3.43,1.2-2.1,3.46-2.11.32-1.18-1.58-3.19-1.76-2.61,5.52,25.25,1.34,30.41.69,5.68.58,12.52-.14,18.16-1.01.16.27.65.15.93.24.03.25.45.07.63.12.34-.55,1.12-.79,1.74-.86,1.43,1.48,2.85-.36,4.25-.48,1,1.17,2.68-.06,3.92-.37-.04-.2.21-.09.34-.11.02.25.45.08.63.12-.03.18-.06.37-.08.55,1.06.13,1.85-.86,2.77-1.28,0,.07,0,.16.02.22h0c.73,1.6,5.64.28,7.3.39,16.64-1.6,32.59-.73,49.33-3.14-.12-.45-.82-.45-1.2-.58.4-.47,1.16-.53,1.72-.75-.44,2.36,8.84.38,10.55.64,30.78-2.99,61.58-3.54,92.39-5.11-1.33.31,1.76,2.23,2.31-.4,1.66.15,3.22-.52,4.86-.25-.55-.06-1.49.31-1.11.98,46.15-2.1,94.22-1.08,139.34-.59,2.59,1.82,7.01.93,10.12,1.07,2.03.85,4.83.22,7.06.13.37.79,1.66.75,2.43.93.27-.46.89-.59,1.38-.64,6.84,2.71,15.57-.22,22.71,2.97,1.88-1.83,4.27,2.02,6.09.11,1.66.53,2.95,1.18,4.78.31,1.2.89,3.22.69,4.71.75,1.96,1.16,5.06-.06,7.29.59,2.07-.13,3.99,1.02,6.06.43.42,1.19-1.65.85-2.17,1.63,2.7.37,5.8,1.16,8.15-.74.81.23-1.04,1.14-1.34,1.25,0,0,0,.02-.01.02.22.91,1.79.75,2.12,0,0,0,0,0,0-.01h0s0,0,0-.01c.21,0,.43,0,.64.01v.02h0s0,0,0,0c0,0,0,0,0,0h0c1.19.09,3.21.6,3.37.93.08.71.84,1.14,1.45,1.03.39-.64,4.67.71,4.66,1.09,1.16-.9,2.76-1.05,4.06-1.38-.02.39.28.84-.17,1.11.56.03,1.08.33,1.5.7-.88.2-2.02.04-2.97.5,1.43-.2,1.81,1.27,2.96,1.72-1.69.14-3.11,1.29-4.76,1.69-2.16-.09-3.17.05-3.33.29-.68,1.07,14.66,4.15,22.12-.64.66-1.11-.75-1.41.67-2.86,6.4.95,2.26-5.33,8.97-4.13.71-.36.98-1.22,1.27-1.91,1.53.17,1.03-1.12.62-1.99-.34-.1-.42.33-.69.32-.14-1.52,3.67-2.85,2.54-4.06,1.03-.81,2.56-.93,2.98-2.49.11-.12.2-.27.31-.39-1.55-2.29-4.49-1.23-6.84-1.29ZM15.31,99.9c-.07,1.32-1.54.72-2.44.87.95-2.68,3.77-2.1,6.05-1.83-.38,2.02-2.64-.96-3.61.96ZM22,99.91c-.36.29-.78.54-1.1.89-1.94-.63,3.34-3.58,1.1-.89ZM24.28,97.2c-.98-3.88-.03-.31,2.26-3.85.8.9,4.33.56,1.58,1.12-5,.26.49,3.06-3.84,2.73ZM28.92,97.18c-1.28-.14,3.43-1.68,3.8-2.17-.27,1.05.99,2.21,1.05,2.68-1.7-1-3.08-.09-4.85-.51ZM37.77,93.55c-.75-.81-3.47-.82-2.35.62-.78-.41-2.34-.41-2.11-1.75.35-2.35,5.02-1.33,4.45,1.13ZM41.08,95.05c1.02.35,3.12-.35,3.03,1.28-1.25.68-4.44.69-3.03-1.28ZM50.35,97.55c-.24.14-.47.29-.71.43-1.05-.72-1.87.35-2.58.07.99-1.62,2-.75-.02-2,1.35-.02.71-1.72.71-2.54,3.42.33.93,2.67,3.1,3.02-1.41-.09-2.93.94-.5,1.02ZM63.38,98.57c-2.7-.09-1.02-3.56-1.47-5.14.39.2.84.11,1.27.13-1.99,3.79,2.86,2.4.21,5ZM70.68,94.92c-.97.01-1.82.14-2.11,1.19-1.12-.42-1.73-1.52-3.07-.95.07-.92.96-1.75,1.87-1.74-.05,2.81,4.29-2.02,3.31,1.5ZM74.16,97.43c-.92-.64-2.02-.77-3.12-.61.58-1.6,2.92-.86,4.12-1.71-1.67-.29,1.52-.07,1.54.41-.45,2.09-2.21.02-2.53,1.91ZM79.7,94.74c-.78-1.12-2.44-.95-3.65-1.28,2.81-.73.32-.82-.88-1.75-.41-.78-3.39-.94-4.22-.26.01.19-.76.12-.68-.09-.39-.63-1.28-.88-2.15-.71.54-.96.9-1.53.41-2.66,2.09.93,3.63.5,1.23,2.47,3.55.01,6.43,1.03,9.83,1.84l-.02,1.34c1.08-.08,1.2.97.13,1.11ZM85.2,94.63c.25-.7-.61-1.22-1.17-.8-.69-.03.15-.59.42-.66,1.14-.03,2.47.52,3.31-.61.36-.08,1.51-.36,1.85-.41-.28.84,1.03.66,1.23.96-1.34,1.92-3.59,1.53-5.65,1.51ZM91.66,91.24c-1.21.04-5.54-2.94-3.14-3.67,1.78.59-.17,1.32,2.7,2.24.58.12,1.4,1.57.44,1.43ZM96.19,94.27c-.65-.2-4.12-.68-2.95-1.72,1.14,2.4,3.47-1.35,4.44,0-.61.44-1.07,1.12-1.49,1.73ZM97.23,89.51c-2.27-1.46-7.82-.76-2.67-3.61.84.62-.47,1.24-.6,1.88,2.34-.63,4.45-1.05,6.82-.43.48-1.69,4.78.06.47,1.12-1.32-1.52-3.42-.86-4.02,1.04ZM106.5,94.13c-.43-1.75-3.77,2.87-3.2-.06,4.13-1.78-4.1.27-4.59-1.53-.78-.05,1.38-.74,1.25.24.95.02,1.81-.42,2.68-.73,1.06,1.25,4.87.03,3.86,2.07ZM110.83,88.27c-3.59,1.17-1.84.61-.94-1.64.63.18,1.37.98.94,1.64ZM111.74,95.98c-2.46-.27,3.07-2.49,2.85-.82-.94.18-2.19.11-2.85.82ZM117.74,85.77c.48.34.98.82.75,1.45-3.45.11-6.34-.4-.75-1.45ZM118.64,90.84c-.78.73-3.02.59-1.31,1.83-.43.86-1.89.83-2.25-.02,1.19-.29.5-1.66.71-2.58.35.13,3.21.29,2.85.77ZM150.29,82.21c-1.12-1.72,3.53.58,1.48,1.84,1.58.35,3.24.43,4.78.31-1.13.16-1.48,1.42-2.24,2.07.65-1.84-1.15-1.1-2.41-1.05-.82-2.1-5.96-.97-1.6-3.18ZM122.03,91.4c-.54.03-1.08.06-1.62.08-.73-2.23,4.53-.74,5.53-.9-1.22.53-2.96-.45-3.91.82ZM127.41,85.91c-2.48-1.13-2.16-2.87.64-2.39-.67,1.24,2.21,1.06,3.03,1.27-.49.88-1.6.5-2.4.86-.39.16-.84.49-1.27.26ZM145.14,89.6c-1.53.42-9.15-.68-8.83.95-.94,1.33-3.07-.83-4.79-.2.7,1.25-1.61.91-2.31.4,3.76-2.54,4.7-.69,8.39-2.29l2.06-.85s.08,1.82,2.33,1.59c2.25-.23,2.97-2.61,2.97-2.61.6.16,1.16.56,1.1,1.24,4.3-1.64,11.85,1.53,3.01,1.51-1.44.44-2.83-1.36-3.92.25ZM150.84,92.26c.25-.78-.35-1.34-1.04-1.57.75-1.02,3.81-.14,4.37.75-1.19.08-2.14.99-3.32.82ZM156.43,88.4c-.67-.26-1.2-.91-1.94-1.07-.08.24-.24-.25-.27-.34,1.46-.38,5.3,1.94,2.21,1.41ZM158.42,84.73c.25-.79-.33-1.38-.69-1.91,3.45-.24,5.48,2.02.69,1.91ZM201.48,89.8c-1.77-1.33.73-1.15.88-2.17.37.19,1.4.14,1.41.47-.8.75-1.62,3.07-2.29,1.69ZM223.72,84.58c-2.13-.58-4.58.77-1.99-1.7.63.46,2.2.84,1.99,1.7ZM241.72,86.62c-1.9-.14-1.67-1.05-.59-2.28.81.42.56,1.66.59,2.28ZM249.27,85.91c.16.45,1.5.95.43,1.25-.75-1.2-2.17.05-3.14-.5.77.11,1.15-.28,1.47-.75,1.37-3.02,5.45-.66,7.8-1.12-1.91.96-5.36-.55-6.56,1.12ZM281.54,87.18c.92-1.14,3.71-.88,4.01-.26-1.4.05-2.62.88-4.01.26ZM299.11,85.83c.76.6,1.96.78,2.72.98-1.38.76-3.94,1.62-2.72-.98ZM320.12,85.1c-.11-1.45-3.98-.16-2.54-2.38,1.25,1.17,2.95,1.34,4.25,1.26-.54.48-.89,1.31-1.71,1.12ZM332.41,88.88c-3.48.18-.42-3.23.6-.92-.42.45-1.67.42-.6.92ZM327.35,84.12c-.61.92-2.96,1.81-3.26.72.67-.55.85-.58.12-1.22,2.84-.15,6.66,1.1,8.79-.73,1.32,2.61-4.51.98-5.65,1.23ZM356.53,88.87c-2.43-2.02-7.13-1.23-2.65-3.71.45.68,1.33,1.2.99,2.09.4.62,2.38.57,1.66,1.62ZM361.66,88.97c1.44.2,1.58-1.01,1.6-2.09.68.15,1.66,1.16,1.57,1.59-1.06.12-2.12,1.08-3.17.49ZM365.09,86.12c-.96.15.03-.7.06-1.08-1-1.11-2.75-.37-4.08-.65,1.11-1.57-1.24-.83-.91-2.46,1.59.41,2.49,1.63,3.83,2.29,1.75-1.2,4.31,2.05,1.1,1.89ZM375.99,88.31c-1.83,1.33-4.3,1.48-1.87-.9.53.19,2.18.16,1.87.9ZM372.58,85.87c-.24.35-.79.17-1.16.27-4.04-1.83,5.52-2.41,6.97-1.63-1.51,1.5-4.5-.18-5.81,1.36ZM384.82,86.04c-2.39-.28,2.18.08,2.23-1.17.82.2,1.66.4,2.48.6-.33-.04-.63.13-.94.09,2.77,1.56-2.78.17-3.77.47ZM401.27,90.8c-2.65,2.25-3.47-1.7,1.54-.98,2.39,1.11-.67.89-1.54.98ZM402.7,85.6c-.34-.4-1.08.21-1.62.08,1.7-1.47,5.22-.51,7.58-1.19-.61.99-2.2.93-3,.72-1.08,1.55-1.64,1.16-2.96.39ZM406.35,91.22c.61-.47.3-1.15-.07-1.67,3.22.78,4.08,2.55.07,1.67ZM409.95,86.15c-.82-.27-1.52.54-2.31.76-.81-1.04,2.44-1.46,3.25-2.21.9-.68,1.44-2.18,2.78-1.46-2.33.95-1.16,3.97-3.72,2.91ZM416.45,92.49c-.63.26-1.16.71-1.69.55-.27-1.04-2.14-.85-1.78-2.28-.42-.4-1.4-.19-1.66-.56.84.11,2.34-1.68,2.65-.39.25,1.29,2.96,1.46,2.48,2.68ZM414.51,86.15c.41-.71,1.44-.79,2.11-1.18-.34-.36-1.09-.17-1.57-.25-.12-1.51-1.85-.89.9-1.65,1.32.69-.45,1.36,2.29,1.83.25,2.9-2.04.89-3.73,1.25ZM419.31,82.4c.79-1.55,7.25-.86,3.84-.06h2.23c2.46-.9,3.23,4.9,6.32.77.87.67,2.36.39,3.44.62-.56,1.48-3.06.15-3.47,1.71-5.9.69-3.38-3.26-11.57-2.09,0,0-1.12-.42-.77-.96ZM422.36,89.51c.42-.61.68-1.24.63-1.99,2.95.41,1.51,1.97-.63,1.99ZM424.69,85.88c-1.52,1-2.03-.45-3.58-.84,1.84-.79,8.46.41,3.58.84ZM435.17,94.19c-1.07,0-2.04-.8-2.65-1.61-1.67-.25-4.08.77-5.31-.63,1.06.83,2.08-.2,2.67-1.08.86.6,1.53,1.37,2.68,1.38.41-.87,2.37-.67,1.82.51,0,.96,2.52.46.79,1.43ZM433.21,89.93c-.38-.53.2-2.59.86-1.32.47-.02-.03.5.22.67,1.4.36,1.15-.66,2.13-1.3-1.22-.06-2.06-1.37-2.2-2.48.77.21,2.06-.24,1.13.88,4.73,3.49,2.08,3.03-2.15,3.55ZM439.97,92.16c-1.94.04-.04,1.12,1.1,1.24-1.27.46-2.95-.44-4.42-.53.82-2.16,5.8.42,1.99-2.52-.32-.23,1.21-1.03,1.46-.54.19,1.34,2.1,1.35,3.06,2.52-1.07.09-2.12-.18-3.19-.17ZM443.97,89.47c-1.74-.41-3.17-.39-4.67-1.32,2.15-2.04,5.68,2.65,5.58-.79,2.48.58.77,2.19-.91,2.11ZM473.72,87.71c1.77,1.85,5.34-.8,6.15,1.8-1.01-.09-1.8.54-2.27,1.38-1.23-.5-2.57-2.06-4.25-1.12-1.68.94-3.31.16-3.31.16-.44-.5-2.38.07-.88-.97-.5-.07-1.01-.14-1.51-.2,1.27-2.22,4.26.46,6.07-1.04ZM455.72,84.91c6.12,1.38-2.58-3.35,5.11-.83,4.56,1.38-5.69,2.1-5.11.83ZM448.66,87.87c2.41.6,2.65-.52.55-1.54,1.19-.54,2.76,1.43,3.31-.61,3.59.39-1.45,1.93.54,2.55,7.11,1.42-2.1,2.08-4.41-.4ZM466.16,100.37c.5-1.17-1.97-1.1-2.81-.88,3.17.52-.44,1.73-1.04-.2-1.76-.08-2.61,1.91-4.41.85,1.27-1.75-3.76-.04-3.78-1.55.68-.1,1.98.44,1.43-.62,6.16,2.7.44-1.5,7.19-1.56.34-.01.47.35.66.64-3.86.43-.42,2.91,1.23,1.08,1.06-.27,3.78,2.37,1.53,2.25ZM476.05,104.31c-.81,1.9-3.34.13-4.82.83-.07,1.08-1.22.01-1.66-.33.89-.12,2.55-1.85,2.97-.5,1.12.09,2.43.37,3.31-.61.13.17.26.39.2.61ZM477.1,102.07c-.01-3.24-4.03,1.31-5.99-.11.52-1.25,1.79-.82,2.82-.61.31-1.64-1.33-.87-2.53-.81,1.16-.45,2.01-1.53,3.21-1.91-.69,1.29.98.93,1.78.88-.38-.46-.02-.86.2-1.32,1.27.57,2.5,1.32,3.85,1.59-1.78.21-2.01,1.28-3.35,2.28ZM484.19,92.19c-1.43-.2-1.99,1.25-3.11,1.54-.75-.09-5.09-.35-2.94.99-1.14-.12-2.09.3-2.84,1.13-1.15.39-1.66-.48-.5-1.1-.6-.33-1.55.01-2.12-.32-.06-1.01-3.17-2.02-2.9-.48-1.5.18,1.26.98-.12,2.48-.52-.4-1.36-.34-1.96-.65,2.78.25.62-.87-.26-1.69,1.77-1.16-1.26-.7-2.12-1.28-1.56,1.28-4.29,1.56-6.5.5,2.49-.12,1.51-1.41-.37-.98.5-.82,1.31-.55,2.13-.5-2.28-1.54,1.06-1.21,2.05-1.62,4.77,2.32,1.53-4.06-1.73-.5-.35-3.3,3.33-.66,5.12-1.6-.02.36.4.51.67.63-.19.39-.98.71-.15.97,0,0,1.79,4.05,10.46,2.14,3.79,2.78,3.99-.99,8.43.26-.24.61-.89.48-1.28.06ZM484.5,87.51c1.12.24,2,.92,2.46,1.84.86.25,3.28-.5,3.15.54-2.05.05-9.42,1.27-5.61-2.39Z"/>
  </g>
  <g id="Sweetwater">
    <path id="_R_" data-name="(R)" class="cls-2" d="M481.89,66.02c.55.23,1.02.55,1.43.96.4.41.72.89.95,1.43.23.55.34,1.14.34,1.77s-.11,1.23-.34,1.77c-.23.54-.55,1.02-.95,1.42-.4.4-.88.72-1.43.95-.55.23-1.14.34-1.78.34s-1.23-.11-1.78-.34c-.55-.23-1.02-.55-1.43-.95-.4-.4-.72-.88-.95-1.42-.23-.54-.34-1.14-.34-1.77s.11-1.22.34-1.77c.23-.55.55-1.03.95-1.43.4-.41.88-.73,1.43-.96.55-.23,1.14-.34,1.78-.34s1.23.11,1.78.34ZM478.59,66.62c-.46.2-.86.48-1.2.82-.34.35-.6.75-.79,1.22-.19.47-.28.97-.28,1.51s.09,1.04.28,1.51c.19.47.45.88.79,1.22.34.35.74.62,1.2.82.46.2.97.3,1.52.3s1.04-.1,1.51-.3c.46-.2.86-.48,1.2-.82.34-.35.6-.75.8-1.22.19-.47.29-.97.29-1.51s-.1-1.04-.29-1.51c-.19-.47-.46-.87-.8-1.22-.34-.35-.74-.62-1.2-.82-.46-.2-.97-.3-1.51-.3s-1.05.1-1.52.3ZM478.48,72.78v-5.2h2c.59,0,1.02.12,1.29.37.27.25.41.6.41,1.07,0,.23-.03.42-.1.59-.07.17-.16.31-.28.43-.12.12-.26.21-.42.28-.16.07-.32.12-.5.15l1.55,2.31h-.75l-1.46-2.31h-1.08v2.31h-.64ZM480.54,69.91c.19-.01.36-.05.5-.1.15-.06.26-.15.35-.27.09-.12.13-.3.13-.51,0-.19-.03-.33-.1-.45-.07-.11-.16-.2-.28-.27-.12-.07-.25-.11-.39-.14-.15-.02-.3-.04-.46-.04h-1.17v1.8h.85c.19,0,.39,0,.57-.02Z"/>
    <path id="r" class="cls-2" d="M469.77,19.08v7.38h.21c1.44-2.67,3.18-4.8,5.23-6.41,2.05-1.6,4.54-2.41,7.48-2.41.41,0,.84.02,1.28.05.44.04.87.09,1.28.15v13.53c-.75-.07-1.49-.12-2.2-.15-.72-.03-1.45-.05-2.2-.05-1.23,0-2.46.17-3.69.51-1.23.34-2.36.91-3.38,1.69-1.02.79-1.84,1.81-2.46,3.07-.61,1.27-.92,2.82-.92,4.66v33.11h-14.15V19.08h13.53Z"/>
    <path id="e" class="cls-2" d="M423.87,53.21c0,1.64.12,3.23.36,4.77.24,1.54.63,2.91,1.18,4.1.55,1.2,1.26,2.15,2.15,2.87.89.72,1.98,1.08,3.28,1.08,2.39,0,4.13-.85,5.23-2.56,1.09-1.71,1.84-4.31,2.26-7.79h12.71c-.27,6.42-1.98,11.31-5.12,14.66-3.14,3.35-8.1,5.02-14.86,5.02-5.12,0-9.12-.86-11.99-2.56s-4.99-3.96-6.36-6.77c-1.37-2.8-2.2-5.94-2.51-9.43-.31-3.48-.46-6.97-.46-10.45,0-3.69.26-7.24.77-10.66.51-3.42,1.54-6.46,3.07-9.12,1.54-2.66,3.74-4.78,6.61-6.35,2.87-1.57,6.7-2.36,11.48-2.36,4.1,0,7.47.67,10.1,2,2.63,1.33,4.7,3.21,6.2,5.64,1.5,2.43,2.53,5.37,3.07,8.82.55,3.45.82,7.3.82,11.53v3.18h-27.98v4.41ZM437.91,34.81c-.2-1.6-.56-2.97-1.08-4.1-.51-1.13-1.23-1.98-2.15-2.56-.92-.58-2.1-.87-3.54-.87s-2.61.32-3.54.97c-.92.65-1.66,1.5-2.2,2.56-.55,1.06-.94,2.24-1.18,3.54-.24,1.3-.36,2.6-.36,3.89v2.15h14.45c-.07-2.12-.21-3.98-.41-5.59Z"/>
    <path id="t" class="cls-2" d="M399.44,3.29v15.79h8.2v9.63h-8.2v29.83c0,2.19.32,3.74.97,4.66.65.92,2,1.38,4.05,1.38.55,0,1.09-.02,1.64-.05.55-.03,1.06-.08,1.54-.15v9.84c-1.57,0-3.09.05-4.56.15-1.47.1-3.02.15-4.66.15-2.73,0-4.97-.19-6.71-.56-1.74-.37-3.07-1.13-4-2.26-.92-1.13-1.56-2.61-1.9-4.46-.34-1.85-.51-4.17-.51-6.97v-31.57h-7.17v-9.63h7.17V3.29h14.15Z"/>
    <path id="a" class="cls-2" d="M335.84,34.65c0-3.21.51-5.89,1.54-8.05,1.02-2.15,2.41-3.89,4.15-5.23,1.74-1.33,3.79-2.29,6.15-2.87,2.36-.58,4.87-.87,7.53-.87,4.24,0,7.65.41,10.25,1.23,2.6.82,4.61,1.98,6.05,3.48,1.44,1.5,2.41,3.3,2.92,5.38.51,2.09.77,4.36.77,6.82v29.01c0,2.6.12,4.61.36,6.05.24,1.43.7,2.97,1.38,4.61h-13.53c-.48-.89-.84-1.83-1.08-2.82-.24-.99-.46-1.96-.67-2.92h-.21c-1.64,2.87-3.54,4.73-5.69,5.59-2.15.85-4.94,1.28-8.35,1.28-2.46,0-4.55-.43-6.25-1.28-1.71-.85-3.07-2.03-4.1-3.54-1.02-1.5-1.78-3.19-2.26-5.07-.48-1.88-.72-3.74-.72-5.59,0-2.6.27-4.83.82-6.71.55-1.88,1.38-3.49,2.51-4.82,1.13-1.33,2.56-2.44,4.31-3.33,1.74-.89,3.84-1.67,6.3-2.36l7.99-2.15c2.12-.55,3.59-1.3,4.41-2.26.82-.96,1.23-2.36,1.23-4.2,0-2.12-.5-3.77-1.49-4.97-.99-1.2-2.68-1.79-5.07-1.79-2.19,0-3.83.65-4.92,1.95-1.09,1.3-1.64,3.04-1.64,5.23v1.54h-12.71v-1.33ZM358.59,48.44c-1.09.44-2.09.77-2.97.97-2.87.62-4.92,1.64-6.15,3.07-1.23,1.44-1.84,3.38-1.84,5.84,0,2.12.41,3.93,1.23,5.43.82,1.5,2.19,2.26,4.1,2.26.96,0,1.95-.15,2.97-.46,1.02-.31,1.96-.8,2.82-1.49.85-.68,1.55-1.57,2.1-2.67.55-1.09.82-2.39.82-3.89v-10.87c-.96.75-1.98,1.35-3.07,1.79Z"/>
    <path id="w" class="cls-2" d="M277.57,19.08l6.46,39.15h.21l6.87-39.15h15.37l7.28,39.15h.21l6.66-39.15h13.53l-11.89,55.14h-16.09l-7.28-39.15h-.21l-6.87,39.15h-16.4l-11.99-55.14h14.14Z"/>
    <path id="t-2" data-name="t" class="cls-2" d="M252.31,3.29v15.79h8.2v9.63h-8.2v29.83c0,2.19.32,3.74.97,4.66.65.92,2,1.38,4.05,1.38.55,0,1.09-.02,1.64-.05.55-.03,1.06-.08,1.54-.15v9.84c-1.57,0-3.09.05-4.56.15-1.47.1-3.02.15-4.66.15-2.73,0-4.97-.19-6.71-.56-1.74-.37-3.07-1.13-4-2.26-.92-1.13-1.56-2.61-1.9-4.46-.34-1.85-.51-4.17-.51-6.97v-31.57h-7.17v-9.63h7.17V3.29h14.15Z"/>
    <path id="e-2" data-name="e" class="cls-2" d="M202.05,53.21c0,1.64.12,3.23.36,4.77.24,1.54.63,2.91,1.18,4.1.55,1.2,1.26,2.15,2.15,2.87.89.72,1.98,1.08,3.28,1.08,2.39,0,4.13-.85,5.23-2.56,1.09-1.71,1.84-4.31,2.26-7.79h12.71c-.27,6.42-1.98,11.31-5.12,14.66-3.14,3.35-8.1,5.02-14.86,5.02-5.12,0-9.12-.86-11.99-2.56s-4.99-3.96-6.36-6.77c-1.37-2.8-2.2-5.94-2.51-9.43-.31-3.48-.46-6.97-.46-10.45,0-3.69.26-7.24.77-10.66.51-3.42,1.54-6.46,3.07-9.12,1.54-2.66,3.74-4.78,6.61-6.35,2.87-1.57,6.7-2.36,11.48-2.36,4.1,0,7.47.67,10.1,2s4.7,3.21,6.2,5.64c1.5,2.43,2.53,5.37,3.07,8.82.55,3.45.82,7.3.82,11.53v3.18h-27.98v4.41ZM216.09,34.81c-.2-1.6-.56-2.97-1.08-4.1-.51-1.13-1.23-1.98-2.15-2.56-.92-.58-2.1-.87-3.54-.87s-2.61.32-3.54.97c-.92.65-1.66,1.5-2.2,2.56-.55,1.06-.94,2.24-1.18,3.54-.24,1.3-.36,2.6-.36,3.89v2.15h14.45c-.07-2.12-.21-3.98-.41-5.59Z"/>
    <path id="e-3" data-name="e" class="cls-2" d="M155.77,53.21c0,1.64.12,3.23.36,4.77.24,1.54.63,2.91,1.18,4.1.55,1.2,1.26,2.15,2.15,2.87.89.72,1.98,1.08,3.28,1.08,2.39,0,4.13-.85,5.23-2.56,1.09-1.71,1.84-4.31,2.26-7.79h12.71c-.27,6.42-1.98,11.31-5.12,14.66-3.14,3.35-8.1,5.02-14.86,5.02-5.12,0-9.12-.86-11.99-2.56s-4.99-3.96-6.36-6.77c-1.37-2.8-2.2-5.94-2.51-9.43-.31-3.48-.46-6.97-.46-10.45,0-3.69.26-7.24.77-10.66.51-3.42,1.54-6.46,3.07-9.12,1.54-2.66,3.74-4.78,6.61-6.35,2.87-1.57,6.7-2.36,11.48-2.36,4.1,0,7.47.67,10.1,2s4.7,3.21,6.2,5.64c1.5,2.43,2.53,5.37,3.07,8.82.55,3.45.82,7.3.82,11.53v3.18h-27.98v4.41ZM169.82,34.81c-.2-1.6-.56-2.97-1.08-4.1-.51-1.13-1.23-1.98-2.15-2.56-.92-.58-2.1-.87-3.54-.87s-2.61.32-3.54.97c-.92.65-1.66,1.5-2.2,2.56-.55,1.06-.94,2.24-1.18,3.54-.24,1.3-.36,2.6-.36,3.89v2.15h14.45c-.07-2.12-.21-3.98-.41-5.59Z"/>
    <path id="w-2" data-name="w" class="cls-2" d="M84.8,19.08l6.46,39.15h.21l6.87-39.15h15.37l7.28,39.15h.21l6.66-39.15h13.53l-11.89,55.14h-16.09l-7.28-39.15h-.21l-6.87,39.15h-16.4l-11.99-55.14h14.14Z"/>
    <path id="S" class="cls-2" d="M35.03,53.91c0,1.71.14,3.26.41,4.66.27,1.4.78,2.58,1.54,3.54.75.96,1.76,1.71,3.02,2.26,1.26.55,2.85.82,4.77.82,2.26,0,4.29-.73,6.1-2.2,1.81-1.47,2.72-3.74,2.72-6.82,0-1.64-.22-3.06-.67-4.25-.45-1.19-1.18-2.27-2.2-3.23-1.02-.96-2.38-1.83-4.05-2.61-1.68-.78-3.74-1.59-6.2-2.41-3.28-1.09-6.12-2.29-8.51-3.59-2.39-1.3-4.39-2.82-6-4.56-1.61-1.74-2.78-3.76-3.54-6.05-.75-2.29-1.13-4.94-1.13-7.94,0-7.24,2.01-12.64,6.05-16.2C31.37,1.78,36.91,0,43.94,0c3.28,0,6.3.36,9.07,1.08,2.77.72,5.16,1.88,7.17,3.48,2.01,1.61,3.59,3.66,4.71,6.15,1.13,2.5,1.69,5.48,1.69,8.97v2.05h-14.15c0-3.48-.61-6.17-1.84-8.05-1.23-1.88-3.28-2.82-6.15-2.82-1.64,0-3.01.24-4.1.72-1.09.48-1.96,1.11-2.61,1.9-.65.79-1.09,1.69-1.33,2.72-.24,1.02-.36,2.09-.36,3.18,0,2.25.48,4.15,1.44,5.69.96,1.54,3.01,2.96,6.15,4.25l11.38,4.92c2.8,1.23,5.09,2.51,6.87,3.84,1.78,1.33,3.19,2.77,4.25,4.3,1.06,1.54,1.79,3.23,2.2,5.07.41,1.84.62,3.89.62,6.15,0,7.72-2.24,13.34-6.71,16.86-4.48,3.52-10.71,5.28-18.71,5.28s-14.3-1.81-17.89-5.43c-3.59-3.62-5.38-8.81-5.38-15.58v-2.97h14.76v2.15Z"/>
  </g>
</svg>